<svg xmlns="http://www.w3.org/2000/svg" xmlns:xlink="http://www.w3.org/1999/xlink" width="197.134" height="284.096" viewBox="197.134 0 197.134 284.096"><defs><linearGradient id="linear-gradient" x1=".505" y1=".827" x2=".384" y2="-5.134" gradientUnits="objectBoundingBox"><stop offset="0" stop-color="#3a3759"/><stop offset="1" stop-color="#546496"/></linearGradient><linearGradient id="linear-gradient-2" x1=".405" y1="1.023" x2=".603" y2=".388" gradientUnits="objectBoundingBox"><stop offset="0" stop-color="#fff" stop-opacity="0"/><stop offset=".999" stop-color="#fff"/></linearGradient><linearGradient id="linear-gradient-3" x1=".644" y1="-1.87" x2=".435" y2=".902" gradientUnits="objectBoundingBox"><stop offset=".1" stop-color="#f5de4c"/><stop offset="1" stop-color="#df6574"/></linearGradient><linearGradient id="linear-gradient-4" x1=".179" y1="-1.446" x2=".634" y2=".626" xlink:href="#linear-gradient-3"/><linearGradient id="linear-gradient-5" x1=".541" y1="1.069" x2=".462" y2=".135" xlink:href="#linear-gradient"/><linearGradient id="linear-gradient-6" x1=".49" y1="1.14" x2=".506" y2=".262" xlink:href="#linear-gradient"/><linearGradient id="linear-gradient-9" x1=".524" y1="5.143" x2=".354" y2="-29.857" xlink:href="#linear-gradient"/><linearGradient id="linear-gradient-10" x1=".502" y1=".559" x2=".074" y2="-14.702" xlink:href="#linear-gradient"/><linearGradient id="linear-gradient-11" x1=".504" y1=".72" x2=".168" y2="-8.85" xlink:href="#linear-gradient"/><linearGradient id="linear-gradient-12" x1=".454" y1="1.302" x2=".535" y2="-.11" gradientUnits="objectBoundingBox"><stop offset="0" stop-color="#d6e6fd"/><stop offset=".998" stop-color="#80aaf8"/></linearGradient><linearGradient id="linear-gradient-13" x1=".5" y1="1.073" x2=".5" y2=".14" xlink:href="#linear-gradient"/><linearGradient id="linear-gradient-14" x1=".496" y1=".931" x2=".512" y2="-.423" xlink:href="#linear-gradient-2"/><linearGradient id="linear-gradient-15" x1="0" y1=".5" x2="1" y2=".5" xlink:href="#linear-gradient-2"/><clipPath id="clip-path"><path id="Path_12" data-name="Path 12" class="cls-1" d="M371.455 171.282c-7.381 6.834-20.111 23.69-18.94 58.046a30.2 30.2 0 00.957 6.556l8.082 31.173h27.889s7.131-25.655 8.621-32.2c3.8-16.707-1.6-48.066-16.048-63.323a7.529 7.529 0 00-10.561-.252z"/></clipPath><clipPath id="clip-path-2"><path id="Rectangle_19" data-name="Rectangle 19" transform="translate(22.433 112.549)" fill="none" d="M0 0h455.134v284.096H0z"/></clipPath><style>.cls-1{fill:url(#linear-gradient)}.cls-14{opacity:.49}.cls-15,.cls-20{fill:#8794ca}.cls-16{opacity:.43}.cls-19{fill:#e9e9e9;opacity:.28}.cls-20{opacity:.42}.cls-23{fill:#71c5a5}.cls-24{fill:#d3d5e4}.cls-25{fill:#f0c871}.cls-26{opacity:.29}.cls-29{fill:#d26798}</style></defs><g id="Group_36" data-name="Group 36" transform="translate(-82.563 -112.549)"><path id="Rectangle_3" data-name="Rectangle 3" transform="translate(279.699 112.549)" fill="#1d1f38" d="M0 0h197.868v284.096H0z"/><path id="Path_2" data-name="Path 2" d="M365.263 265.459l-3.882 127.2h28.833l-4.534-128.112z" fill="url(#linear-gradient-2)" opacity=".38"/><g id="Group_25" data-name="Group 25"><g id="Group_24" data-name="Group 24"><g id="Group_22" data-name="Group 22"><path id="Path_3" data-name="Path 3" d="M362.627 267.057s-1.71 33.344 15.727 35.023c0 0 10.752-4.446 11.49-36.1z" fill="url(#linear-gradient-3)" opacity=".2"/><path id="Path_4" data-name="Path 4" d="M366.48 267.057s2.015 23.3 9.768 27.43c0 0 5.95-3.635 8.955-27.43z" fill="url(#linear-gradient-4)"/><path id="Path_5" data-name="Path 5" d="M353.1 218.15s-12.517 27.842-12.673 34.865 10.456 35.429 12.329 30.9-2.264-18.2 7.105-24.006l-4.319-19.8a58.136 58.136 0 01-1.714-10.451 669.494 669.494 0 01-.728-11.508z" fill="url(#linear-gradient-5)"/><path id="Path_6" data-name="Path 6" d="M398.491 216.707s12.517 27.842 12.673 34.865-10.457 35.429-12.33 30.9 1.571-17.466-7.8-23.277l5.013-20.525a58.047 58.047 0 001.714-10.451c.239-3.326.531-7.68.73-11.512z" fill="url(#linear-gradient-6)"/><g id="Group_15" data-name="Group 15"><path id="Path_7" data-name="Path 7" class="cls-1" d="M371.455 171.282c-7.381 6.834-20.111 23.69-18.94 58.046a30.2 30.2 0 00.957 6.556l8.082 31.173h27.889s7.131-25.655 8.621-32.2c3.8-16.707-1.6-48.066-16.048-63.323a7.529 7.529 0 00-10.561-.252z"/><g id="Group_14" data-name="Group 14" clip-path="url(#clip-path)"><path id="Path_8" data-name="Path 8" class="cls-1" d="M371.455 171.282c-7.381 6.834-20.111 23.69-18.94 58.046a30.2 30.2 0 00.957 6.556l8.082 31.173h27.889s7.131-25.655 8.621-32.2c3.8-16.707-1.6-48.066-16.048-63.323a7.529 7.529 0 00-10.561-.252z"/><path id="Path_9" data-name="Path 9" d="M363.392 181.113h25.519l1.655-15.223-20.976-1.434-12.55 3.765z" fill="url(#linear-gradient-9)"/><path id="Path_10" data-name="Path 10" d="M374.891 228.852c-2.54 16.132-6.629 29.5-13.337 38.205h11.308z" fill="url(#linear-gradient-10)" opacity=".4"/><path id="Path_11" data-name="Path 11" d="M397.605 206.132s-2.221 48.111-15.132 60.925h6.97s15.12-39.25 8.162-60.925z" fill="url(#linear-gradient-11)" opacity=".4"/></g></g><g id="Group_16" data-name="Group 16" class="cls-14"><path id="Path_13" data-name="Path 13" class="cls-15" d="M398.424 210.256c-.013.168-2.545.1-6.629-.012s-9.723-.263-15.952-.273-11.87.122-15.955.229-6.616.163-6.628 0 2.5-.5 6.586-.821 9.743-.58 16-.573 11.912.286 15.995.616 6.595.678 6.583.834z"/></g><g id="Group_17" data-name="Group 17" class="cls-14"><path id="Path_14" data-name="Path 14" class="cls-15" d="M399.244 213.925c-.016.166-2.613.049-6.8-.176s-9.971-.536-16.362-.769-12.183-.339-16.376-.417-6.792-.149-6.8-.316 2.589-.378 6.791-.511 10.011-.156 16.424.074 12.2.676 16.384 1.114 6.754.846 6.739 1.001z"/></g><g id="Group_18" data-name="Group 18" class="cls-16"><path id="Path_15" data-name="Path 15" class="cls-15" d="M390.708 265.8c0 .324-6.616.493-14.765.379s-14.755-.469-14.75-.792 6.614-.492 14.767-.378 14.753.463 14.748.791z"/></g><g id="Group_19" data-name="Group 19" class="cls-16"><path id="Path_16" data-name="Path 16" class="cls-15" d="M390.284 263.171c0 .323-6.769.554-15.114.515s-15.112-.332-15.11-.656 6.768-.553 15.116-.514 15.11.332 15.108.655z"/></g><path id="Path_17" data-name="Path 17" d="M385.885 213.835a9.967 9.967 0 11-8.9-10.932 9.968 9.968 0 018.9 10.932z" fill="#302d40" opacity=".19"/><g id="Group_20" data-name="Group 20"><path id="Path_18" data-name="Path 18" d="M386.617 212.214a9.967 9.967 0 11-8.9-10.931 9.967 9.967 0 018.9 10.931z" fill="url(#linear-gradient-12)"/><path id="Path_19" data-name="Path 19" class="cls-19" d="M368.228 216.439l13.921-13.588s2.7 2.043 3.4 3.755l-14.672 12.677s-2.464-1.483-2.649-2.844z"/><path id="Path_20" data-name="Path 20" class="cls-19" d="M373.161 220.517l12.827-12.942.53 1.889-11.46 11.564z"/></g><g id="Group_21" data-name="Group 21"><path id="Path_21" data-name="Path 21" class="cls-20" d="M362.712 228.06a.747.747 0 11-.748-.747.747.747 0 01.748.747z"/><path id="Path_22" data-name="Path 22" class="cls-20" d="M362.712 230.255a.747.747 0 11-.748-.747.747.747 0 01.748.747z"/><path id="Path_23" data-name="Path 23" class="cls-20" d="M362.712 232.67a.747.747 0 11-.748-.747.748.748 0 01.748.747z"/></g><path id="Path_24" data-name="Path 24" d="M376.311 228.109s-4.075.624-4.071 19.977c.005 23.567 1.249 35.932 3.278 35.758s8.609-56.828.793-55.735z" fill="url(#linear-gradient-13)"/><path id="Path_25" data-name="Path 25" d="M360.06 187.149s15.694 7.81 31.826 0c0 0-6.269-19.654-15.935-17.9s-15.891 17.9-15.891 17.9z" fill="#8794ca" opacity=".2"/></g></g></g><g id="Group_26" data-name="Group 26"><path id="Path_26" data-name="Path 26" class="cls-23" d="M321.11 183.809l-20.689-13.691 22.2-11.072zm-17.795-13.514l16.5 10.92 1.206-19.752z"/></g><g id="Group_27" data-name="Group 27"><path id="Path_27" data-name="Path 27" class="cls-24" d="M432.346 223.52l11.339-22.066 13.441 20.853zm11.481-19.17l-9.044 17.6 19.764-.968z"/></g><g id="Group_28" data-name="Group 28"><path id="Path_28" data-name="Path 28" class="cls-25" d="M349.436 137.13l.021-9.234 7.986 4.635zm.743-7.978l-.016 6.724 5.831-3.348z"/></g><g id="Group_29" data-name="Group 29" class="cls-26"><path id="Path_29" data-name="Path 29" d="M405.974 154.52l-9.834-4.677 8.967-6.177zm-6.943-4.908l5.3 2.522-.467-5.85z" fill="#95d7fd"/></g><path id="Path_30" data-name="Path 30" d="M344.211 324.1l-3.783-1.8-3.783-1.8 3.45-2.376 3.45-2.376.333 4.176z" stroke="#95d7fd" stroke-miterlimit="10" opacity=".29" fill="none"/><g id="Group_30" data-name="Group 30" class="cls-26"><path id="Path_31" data-name="Path 31" class="cls-24" d="M315.294 282.26L302.1 267.734l19.175-4.16zm-10.429-13.643l9.815 10.809 4.453-13.9z"/></g><g id="Group_31" data-name="Group 31"><path id="Path_32" data-name="Path 32" class="cls-29" d="M424.031 313.971l1.91-26.368 21.879 14.836zm3.175-23.757l-1.547 21.357 19.271-9.341z"/></g><rect id="Rectangle_11" data-name="Rectangle 11" class="cls-29" width="6.859" height="2.007" rx=".559" transform="rotate(-45.001 417.48 -263.644)"/><rect id="Rectangle_12" data-name="Rectangle 12" class="cls-29" width="6.859" height="2.007" rx=".559" transform="rotate(-45.001 366.047 -453.322)"/><rect id="Rectangle_13" data-name="Rectangle 13" width="6.859" height="2.007" rx=".559" transform="rotate(-115.857 195.492 -27.772)" opacity=".29" fill="#d3d5e4"/><rect id="Rectangle_14" data-name="Rectangle 14" class="cls-23" width="6.859" height="2.007" rx=".559" transform="rotate(-115.857 229.044 -27.299)"/><rect id="Rectangle_15" data-name="Rectangle 15" class="cls-23" width="6.859" height="2.007" rx=".559" transform="rotate(-115.857 248.683 60.763)"/><rect id="Rectangle_16" data-name="Rectangle 16" width="6.859" height="2.007" rx=".559" transform="matrix(-.917 .4 -.4 -.917 442.382 176.451)" opacity=".29" fill="#71c5a5"/><rect id="Rectangle_17" data-name="Rectangle 17" width="6.859" height="2.007" rx=".559" transform="rotate(51.482 -44.923 593.8)" opacity=".29" fill="#f0c871"/><g id="Group_35" data-name="Group 35"><g id="Group_34" data-name="Group 34" clip-path="url(#clip-path-2)"><path id="Path_33" data-name="Path 33" d="M197.718 242.157c9.373-11.226 27.825-18.812 47.042-19.34s38.538 6.019 49.258 16.693c13.075 13.018 16.56 32.853 38.946 37.538 13.961 2.921 29.315-1.974 43.586.176 30.782 4.636 40.178 38.2 71.731 37.97 5.977-.044 11.9-1.449 17.829-.935 13.143 1.14 20.282 10.672 24.577 19.052 11.524 22.485 17.854 49.749-4.841 68.045-9.066 7.31-21.87 12.221-35.3 15.315-27.9 6.429-58.25 5.462-87.715 4.3-32.17-1.265-64.452-2.681-96.016-7.025-16.735-2.3-33.907-5.674-46.452-13.428-11.446-7.075-17.8-17.047-22.734-26.933-23.594-47.3-21.191-100.177 6.654-146.429" opacity=".16" fill="url(#linear-gradient-14)"/><path id="Path_34" data-name="Path 34" d="M531.2 392.757c.662-27.837-10.863-59.622-28.629-71.381s-40.329-6.96-54.894 11.675c-5.426 6.942-10.477 16.072-17.73 17.251-10.161 1.653-18.357-13.275-28.567-14.11-13.62-1.115-22.5 22.294-35.956 25.453-9.972 2.341-19.627-7.08-29.73-6.716-7.394.266-14.389 5.771-21.782 5.447-13.942-.612-23.24-20.7-36.078-28.454-12.729-7.686-28.23-1.881-38.448 11.365s-15.615 32.745-17.206 52.27z" fill="url(#linear-gradient-15)" opacity=".38"/><path id="Path_35" data-name="Path 35" d="M216.822 398.121c-.677-20.488 11.413-46.175 29.588-54.829s41.255-5.122 56.157 8.593c5.55 5.109 10.717 11.828 18.137 12.7 10.394 1.217 18.779-9.77 29.224-10.385 13.934-.82 23.013 16.408 36.783 18.733 10.2 1.723 20.079-5.211 30.414-4.943 7.564.2 14.72 4.247 22.283 4.009 14.263-.45 23.775-15.235 36.908-20.941 13.022-5.657 28.879-1.384 39.332 8.364s15.974 24.1 17.6 38.469z" fill="#f8f9fb"/><g id="Group_33" data-name="Group 33"><path id="Path_36" data-name="Path 36" class="cls-25" d="M460.789 159.619l-4.731-30.941 29.161 11.372zm-3.825-29.81l4.352 28.46 22.471-18z"/></g></g></g></g></svg>