<svg xmlns="http://www.w3.org/2000/svg" width="47.164" height="12.834"><defs><style>.cls-1{fill:#3d2875}</style></defs><g id="Group_12" data-name="Group 12" transform="translate(-66.791 -137.689)"><g id="Group_11" data-name="Group 11"><g id="Group_10" data-name="Group 10"><path id="Path_1" data-name="Path 1" class="cls-1" d="M77.536 141.81v6.033a.789.789 0 01-.789.789H70.4a.789.789 0 00-.789.789v.313a.789.789 0 00.789.789h8.32a.789.789 0 00.789-.789v-7.924a.789.789 0 00-.789-.789c-.436 0-1.22 0-1.184.789z"/><path id="Rectangle_9" data-name="Rectangle 9" class="cls-1" d="M1.207 0H8.3a1.206 1.206 0 011.2 1.206V8.3a1.206 1.206 0 01-1.2 1.2H1.207A1.207 1.207 0 010 8.3V1.207A1.207 1.207 0 011.207 0z" transform="translate(66.791 137.689)"/></g></g><text id="yourtext" transform="translate(84.954 145.771)" font-size="6.574" font-family="Montserrat-ExtraBold,Montserrat" font-weight="800" fill="#3d2875"><tspan x="0" y="0">your</tspan><tspan y="0" font-family="Montserrat-Italic,Montserrat" font-weight="400" font-style="italic">text</tspan></text></g></svg>